<mxfile host="app.diagrams.net" modified="2024-01-27T08:23:08.497Z" agent="Mozilla/5.0 (Macintosh; Intel Mac OS X 10_15_7) AppleWebKit/537.36 (KHTML, like Gecko) Chrome/120.0.0.0 Safari/537.36" etag="pVp2tQWQHxHfMJe9em1s" version="23.0.2" type="github">
  <diagram name="페이지-1" id="Nr9yNkyOdlThKtEcfKw0">
    <mxGraphModel dx="1224" dy="775" grid="1" gridSize="10" guides="1" tooltips="1" connect="1" arrows="1" fold="1" page="1" pageScale="1" pageWidth="827" pageHeight="1169" math="0" shadow="0">
      <root>
        <mxCell id="0" />
        <mxCell id="1" parent="0" />
        <mxCell id="GwOiKbkjGdelK6N5Urem-1" value="이용자" style="shape=umlActor;verticalLabelPosition=bottom;verticalAlign=top;html=1;" vertex="1" parent="1">
          <mxGeometry x="22" y="210" width="30" height="60" as="geometry" />
        </mxCell>
        <mxCell id="GwOiKbkjGdelK6N5Urem-2" value="게시판 서비스" style="shape=umlFrame;whiteSpace=wrap;html=1;pointerEvents=0;width=80;height=20;" vertex="1" parent="1">
          <mxGeometry x="122" y="60" width="578" height="590" as="geometry" />
        </mxCell>
        <mxCell id="GwOiKbkjGdelK6N5Urem-3" value="회원가입" style="rounded=1;whiteSpace=wrap;html=1;arcSize=40;fontColor=#000000;fillColor=#ffffc0;strokeColor=#ff0000;" vertex="1" parent="1">
          <mxGeometry x="182" y="210" width="120" height="40" as="geometry" />
        </mxCell>
        <mxCell id="GwOiKbkjGdelK6N5Urem-4" style="rounded=0;orthogonalLoop=1;jettySize=auto;html=1;endArrow=none;endFill=0;" edge="1" parent="1" source="GwOiKbkjGdelK6N5Urem-7">
          <mxGeometry relative="1" as="geometry">
            <mxPoint x="52" y="230" as="targetPoint" />
          </mxGeometry>
        </mxCell>
        <mxCell id="GwOiKbkjGdelK6N5Urem-5" style="rounded=0;orthogonalLoop=1;jettySize=auto;html=1;entryX=0;entryY=0.5;entryDx=0;entryDy=0;endArrow=classic;endFill=1;dashed=1;" edge="1" parent="1" source="GwOiKbkjGdelK6N5Urem-7" target="GwOiKbkjGdelK6N5Urem-9">
          <mxGeometry relative="1" as="geometry" />
        </mxCell>
        <mxCell id="GwOiKbkjGdelK6N5Urem-6" value="&amp;lt;&amp;lt;include&amp;gt;&amp;gt;" style="edgeLabel;html=1;align=center;verticalAlign=middle;resizable=0;points=[];" vertex="1" connectable="0" parent="GwOiKbkjGdelK6N5Urem-5">
          <mxGeometry x="-0.3" y="2" relative="1" as="geometry">
            <mxPoint x="23" y="2" as="offset" />
          </mxGeometry>
        </mxCell>
        <mxCell id="GwOiKbkjGdelK6N5Urem-7" value="회원 로그인" style="rounded=1;whiteSpace=wrap;html=1;arcSize=40;fontColor=#000000;fillColor=#ffffc0;strokeColor=#ff0000;" vertex="1" parent="1">
          <mxGeometry x="302" y="110" width="120" height="40" as="geometry" />
        </mxCell>
        <mxCell id="GwOiKbkjGdelK6N5Urem-8" style="rounded=0;orthogonalLoop=1;jettySize=auto;html=1;entryX=0;entryY=0.5;entryDx=0;entryDy=0;" edge="1" parent="1" source="GwOiKbkjGdelK6N5Urem-9" target="GwOiKbkjGdelK6N5Urem-32">
          <mxGeometry relative="1" as="geometry">
            <mxPoint x="810" y="260" as="targetPoint" />
          </mxGeometry>
        </mxCell>
        <mxCell id="GwOiKbkjGdelK6N5Urem-9" value="인증" style="rounded=1;whiteSpace=wrap;html=1;arcSize=40;fontColor=#000000;fillColor=#ffffc0;strokeColor=#ff0000;" vertex="1" parent="1">
          <mxGeometry x="560" y="110" width="120" height="40" as="geometry" />
        </mxCell>
        <mxCell id="GwOiKbkjGdelK6N5Urem-10" style="rounded=0;orthogonalLoop=1;jettySize=auto;html=1;entryX=1;entryY=0.75;entryDx=0;entryDy=0;exitX=0;exitY=0.5;exitDx=0;exitDy=0;endArrow=classic;endFill=1;dashed=1;" edge="1" parent="1" source="GwOiKbkjGdelK6N5Urem-12" target="GwOiKbkjGdelK6N5Urem-7">
          <mxGeometry relative="1" as="geometry" />
        </mxCell>
        <mxCell id="GwOiKbkjGdelK6N5Urem-11" value="&amp;lt;&amp;lt;extend&amp;gt;&amp;gt;" style="edgeLabel;html=1;align=center;verticalAlign=middle;resizable=0;points=[];" vertex="1" connectable="0" parent="GwOiKbkjGdelK6N5Urem-10">
          <mxGeometry x="0.2741" y="3" relative="1" as="geometry">
            <mxPoint x="22" y="12" as="offset" />
          </mxGeometry>
        </mxCell>
        <mxCell id="GwOiKbkjGdelK6N5Urem-12" value="로그인 실패" style="rounded=1;whiteSpace=wrap;html=1;arcSize=40;fontColor=#000000;fillColor=#ffffc0;strokeColor=#ff0000;" vertex="1" parent="1">
          <mxGeometry x="560" y="180" width="120" height="40" as="geometry" />
        </mxCell>
        <mxCell id="GwOiKbkjGdelK6N5Urem-13" style="rounded=0;orthogonalLoop=1;jettySize=auto;html=1;endArrow=none;endFill=0;exitX=0;exitY=0.5;exitDx=0;exitDy=0;" edge="1" parent="1" source="GwOiKbkjGdelK6N5Urem-15">
          <mxGeometry relative="1" as="geometry">
            <mxPoint x="52" y="230" as="targetPoint" />
          </mxGeometry>
        </mxCell>
        <mxCell id="GwOiKbkjGdelK6N5Urem-14" style="rounded=0;orthogonalLoop=1;jettySize=auto;html=1;entryX=0.5;entryY=1;entryDx=0;entryDy=0;exitX=1;exitY=0.25;exitDx=0;exitDy=0;dashed=1;" edge="1" parent="1" source="GwOiKbkjGdelK6N5Urem-15" target="GwOiKbkjGdelK6N5Urem-7">
          <mxGeometry relative="1" as="geometry" />
        </mxCell>
        <mxCell id="GwOiKbkjGdelK6N5Urem-15" value="게시판 보기" style="rounded=1;whiteSpace=wrap;html=1;arcSize=40;fontColor=#000000;fillColor=#ffffc0;strokeColor=#ff0000;" vertex="1" parent="1">
          <mxGeometry x="182" y="320" width="120" height="40" as="geometry" />
        </mxCell>
        <mxCell id="GwOiKbkjGdelK6N5Urem-16" style="rounded=0;orthogonalLoop=1;jettySize=auto;html=1;exitX=0;exitY=0.5;exitDx=0;exitDy=0;entryX=1;entryY=0.5;entryDx=0;entryDy=0;dashed=1;" edge="1" parent="1" source="GwOiKbkjGdelK6N5Urem-17" target="GwOiKbkjGdelK6N5Urem-15">
          <mxGeometry relative="1" as="geometry" />
        </mxCell>
        <mxCell id="GwOiKbkjGdelK6N5Urem-17" value="게시판 정렬" style="rounded=1;whiteSpace=wrap;html=1;arcSize=40;fontColor=#000000;fillColor=#ffffc0;strokeColor=#ff0000;" vertex="1" parent="1">
          <mxGeometry x="390" y="270" width="120" height="40" as="geometry" />
        </mxCell>
        <mxCell id="GwOiKbkjGdelK6N5Urem-18" style="rounded=0;orthogonalLoop=1;jettySize=auto;html=1;entryX=1;entryY=0.5;entryDx=0;entryDy=0;dashed=1;exitX=0;exitY=0.25;exitDx=0;exitDy=0;" edge="1" parent="1" source="GwOiKbkjGdelK6N5Urem-19" target="GwOiKbkjGdelK6N5Urem-15">
          <mxGeometry relative="1" as="geometry" />
        </mxCell>
        <mxCell id="GwOiKbkjGdelK6N5Urem-19" value="게시판 검색" style="rounded=1;whiteSpace=wrap;html=1;arcSize=40;fontColor=#000000;fillColor=#ffffc0;strokeColor=#ff0000;" vertex="1" parent="1">
          <mxGeometry x="390" y="360" width="120" height="40" as="geometry" />
        </mxCell>
        <mxCell id="GwOiKbkjGdelK6N5Urem-20" style="rounded=0;orthogonalLoop=1;jettySize=auto;html=1;endArrow=none;endFill=0;exitX=0;exitY=0.5;exitDx=0;exitDy=0;" edge="1" parent="1" source="GwOiKbkjGdelK6N5Urem-22">
          <mxGeometry relative="1" as="geometry">
            <mxPoint x="52" y="230" as="targetPoint" />
          </mxGeometry>
        </mxCell>
        <mxCell id="GwOiKbkjGdelK6N5Urem-21" style="rounded=0;orthogonalLoop=1;jettySize=auto;html=1;dashed=1;exitX=1;exitY=0;exitDx=0;exitDy=0;" edge="1" parent="1" source="GwOiKbkjGdelK6N5Urem-22">
          <mxGeometry relative="1" as="geometry">
            <mxPoint x="362" y="140" as="targetPoint" />
          </mxGeometry>
        </mxCell>
        <mxCell id="GwOiKbkjGdelK6N5Urem-22" value="게시글 보기" style="rounded=1;whiteSpace=wrap;html=1;arcSize=40;fontColor=#000000;fillColor=#ffffc0;strokeColor=#ff0000;" vertex="1" parent="1">
          <mxGeometry x="182" y="500" width="120" height="40" as="geometry" />
        </mxCell>
        <mxCell id="GwOiKbkjGdelK6N5Urem-23" style="edgeStyle=orthogonalEdgeStyle;rounded=0;orthogonalLoop=1;jettySize=auto;html=1;entryX=1;entryY=0.5;entryDx=0;entryDy=0;dashed=1;" edge="1" parent="1" source="GwOiKbkjGdelK6N5Urem-24" target="GwOiKbkjGdelK6N5Urem-22">
          <mxGeometry relative="1" as="geometry" />
        </mxCell>
        <mxCell id="GwOiKbkjGdelK6N5Urem-24" value="게시글 쓰기, 수정, 삭제" style="rounded=1;whiteSpace=wrap;html=1;arcSize=40;fontColor=#000000;fillColor=#ffffc0;strokeColor=#ff0000;" vertex="1" parent="1">
          <mxGeometry x="378" y="500" width="120" height="40" as="geometry" />
        </mxCell>
        <mxCell id="GwOiKbkjGdelK6N5Urem-25" style="rounded=0;orthogonalLoop=1;jettySize=auto;html=1;dashed=1;entryX=1;entryY=0.5;entryDx=0;entryDy=0;" edge="1" parent="1" source="GwOiKbkjGdelK6N5Urem-27" target="GwOiKbkjGdelK6N5Urem-22">
          <mxGeometry relative="1" as="geometry">
            <mxPoint x="312" y="520" as="targetPoint" />
          </mxGeometry>
        </mxCell>
        <mxCell id="GwOiKbkjGdelK6N5Urem-26" style="rounded=0;orthogonalLoop=1;jettySize=auto;html=1;entryX=0;entryY=0.5;entryDx=0;entryDy=0;endArrow=none;endFill=0;" edge="1" parent="1" target="GwOiKbkjGdelK6N5Urem-32">
          <mxGeometry relative="1" as="geometry">
            <mxPoint x="500" y="590" as="sourcePoint" />
          </mxGeometry>
        </mxCell>
        <mxCell id="GwOiKbkjGdelK6N5Urem-27" value="댓글 보기, 쓰기,&lt;br&gt;수정, 삭제" style="rounded=1;whiteSpace=wrap;html=1;arcSize=40;fontColor=#000000;fillColor=#ffffc0;strokeColor=#ff0000;" vertex="1" parent="1">
          <mxGeometry x="378" y="570" width="120" height="40" as="geometry" />
        </mxCell>
        <mxCell id="GwOiKbkjGdelK6N5Urem-28" style="rounded=0;orthogonalLoop=1;jettySize=auto;html=1;entryX=1;entryY=0.3333333333333333;entryDx=0;entryDy=0;entryPerimeter=0;endArrow=none;endFill=0;" edge="1" parent="1" source="GwOiKbkjGdelK6N5Urem-3" target="GwOiKbkjGdelK6N5Urem-1">
          <mxGeometry relative="1" as="geometry" />
        </mxCell>
        <mxCell id="GwOiKbkjGdelK6N5Urem-29" style="rounded=0;orthogonalLoop=1;jettySize=auto;html=1;exitX=0;exitY=0.5;exitDx=0;exitDy=0;" edge="1" parent="1" source="GwOiKbkjGdelK6N5Urem-32">
          <mxGeometry relative="1" as="geometry">
            <mxPoint x="310" y="350" as="targetPoint" />
          </mxGeometry>
        </mxCell>
        <mxCell id="GwOiKbkjGdelK6N5Urem-30" style="rounded=0;orthogonalLoop=1;jettySize=auto;html=1;exitX=0;exitY=0.5;exitDx=0;exitDy=0;" edge="1" parent="1" source="GwOiKbkjGdelK6N5Urem-32">
          <mxGeometry relative="1" as="geometry">
            <mxPoint x="310" y="520" as="targetPoint" />
          </mxGeometry>
        </mxCell>
        <mxCell id="GwOiKbkjGdelK6N5Urem-31" style="rounded=0;orthogonalLoop=1;jettySize=auto;html=1;entryX=1;entryY=0.25;entryDx=0;entryDy=0;endArrow=none;endFill=0;exitX=0;exitY=0.5;exitDx=0;exitDy=0;" edge="1" parent="1" source="GwOiKbkjGdelK6N5Urem-32" target="GwOiKbkjGdelK6N5Urem-24">
          <mxGeometry relative="1" as="geometry" />
        </mxCell>
        <mxCell id="GwOiKbkjGdelK6N5Urem-32" value="DB" style="html=1;dropTarget=0;whiteSpace=wrap;" vertex="1" parent="1">
          <mxGeometry x="820" y="230" width="93" height="80" as="geometry" />
        </mxCell>
      </root>
    </mxGraphModel>
  </diagram>
</mxfile>
